<svg width="659" height="138" viewBox="0 0 659 138" fill="none" xmlns="http://www.w3.org/2000/svg">
<path d="M42.2884 107.596C42.1611 107.385 41.8915 107.303 41.6743 107.408C35.8246 110.209 31.6152 114.452 29.9524 119.904C28.2971 125.341 29.4056 131.206 32.6713 136.793C32.7986 137.003 33.0682 137.086 33.2854 136.981C39.1276 134.187 43.3445 129.937 45.0073 124.485C46.6701 119.033 45.5541 113.183 42.2884 107.596ZM35.3602 130.402C35.1055 130.598 34.731 130.478 34.6336 130.177C33.7348 127.489 33.3529 124.387 34.3191 121.233C35.2853 118.072 37.3375 115.706 39.5995 113.979C39.8542 113.784 40.2287 113.904 40.326 114.204C41.2248 116.893 41.6068 119.994 40.6481 123.141C39.6819 126.302 37.6297 128.668 35.3677 130.395L35.3602 130.402Z" fill="url(#paint0_linear_101_4)"/>
<path d="M74.5629 76.5209C73.2446 74.651 71.9938 72.7435 70.8178 70.806C66.586 63.8446 63.2754 56.5077 61.0059 48.953C60.7438 48.0894 59.5304 47.7139 58.8264 48.2846C52.722 53.2785 45.8761 57.5215 38.476 60.9158C36.4163 61.8621 34.3191 62.7482 32.1769 63.5517C25.6906 66.0224 18.8447 67.8698 11.7517 69.0563C11.3098 69.1314 10.9578 69.4092 10.8454 69.7922L0.516713 103.668C0.336953 104.261 0.748901 104.915 1.44547 105.133C1.73758 105.223 2.04467 105.223 2.31431 105.133C14.508 101.16 28.6566 100.867 42.6704 105.163C56.6842 109.458 68.2488 117.636 76.1432 127.767C76.323 127.992 76.5702 128.165 76.8623 128.255C77.5588 128.465 78.2704 128.157 78.4502 127.564L88.7789 93.6879C88.8987 93.3049 88.7639 92.8843 88.4343 92.5689C83.2063 87.6051 78.555 82.2207 74.5479 76.5284L74.5629 76.5209ZM75.3867 116.006C75.1396 116.825 73.9562 117.028 73.2371 116.382C66.234 110.014 57.8227 104.907 48.61 101.49C47.1794 100.95 45.7263 100.462 44.2583 100.011C42.7528 99.5529 41.2398 99.1399 39.7269 98.7719C30.2146 96.4589 20.4251 95.9858 11.1001 97.3376C10.1414 97.4727 9.28001 96.6391 9.52718 95.8281L16.0135 74.5533C16.1259 74.1854 16.4554 73.9075 16.8824 73.8249C22.2377 72.766 27.4358 71.3542 32.4391 69.597C34.4988 68.8761 36.5286 68.0951 38.5135 67.269C44.7077 64.6782 50.5499 61.5467 55.9727 57.9045C56.6692 57.4389 57.7403 57.7618 58.0549 58.5428C60.5191 64.5881 63.605 70.4531 67.2826 76.0628C68.466 77.8651 69.7093 79.6449 71.0126 81.3946C74.1958 85.6676 77.7236 89.7603 81.581 93.6503C81.8881 93.9582 82.0079 94.3712 81.8956 94.7392L75.4092 116.014L75.3867 116.006Z" fill="url(#paint1_linear_101_4)"/>
<path d="M75.6714 2.18305L75.6564 2.15301C75.6114 2.05538 75.559 1.94274 75.5066 1.83009L75.4616 1.755C75.2669 1.46212 74.8999 1.19178 74.473 1.06411C74.2932 1.01154 74.106 0.981506 73.9187 0.981506C73.6491 0.981506 73.3794 1.04158 73.1323 1.16174L72.9225 1.28189C54.1826 12.246 41.2923 27.8059 35.6673 46.2796C33.5626 53.1734 32.5065 60.3827 32.5364 67.6896C32.5439 69.6496 32.6188 71.4744 32.7686 73.2842C33.4727 82.2657 35.7646 91.3674 39.5696 100.326C39.8018 100.882 40.0414 101.43 40.2886 101.971C40.7829 103.09 41.7267 103.924 42.8801 104.284C44.0486 104.644 45.2844 104.472 46.318 103.833L46.4529 103.743C46.9247 103.458 47.3816 103.158 47.8385 102.865C56.0251 97.5854 63.0133 91.3299 68.6233 84.2633C69.7767 82.8139 70.8927 81.297 71.9413 79.7575C76.0758 73.6973 79.2366 67.1113 81.3488 60.1724C86.9663 41.7738 84.9964 21.7231 75.6564 2.19056L75.6714 2.18305ZM75.7463 58.4452C74.8924 61.2613 73.8438 64.0173 72.6229 66.6908C71.4021 69.3642 70.0164 71.9625 68.466 74.4557C67.4623 76.0778 66.3538 77.7149 65.1704 79.307C59.9498 86.2984 53.3287 92.5164 45.4942 97.7806L44.7227 98.3063L44.3632 97.4427C40.8129 88.694 38.8056 79.8326 38.4086 71.1365C38.3187 69.1765 38.3112 67.2014 38.3861 65.2564C38.6034 59.3614 39.5845 53.5564 41.2698 47.9993C46.0185 32.4243 56.3996 18.877 71.2897 8.83658L71.462 8.72394C71.6642 8.62631 71.8964 8.60378 72.1286 8.67137L72.563 8.81405L72.8177 9.41482C79.4538 25.9961 80.465 42.9603 75.7388 58.4527L75.7463 58.4452Z" fill="url(#paint2_linear_101_4)"/>
<path d="M161.334 88.4841C156.893 91.533 151.568 93.0575 145.381 93.0575C139.771 93.0575 134.902 91.8184 130.798 89.3402C126.686 86.862 123.525 83.3625 121.33 78.8567C119.136 74.351 118.035 69.1318 118.035 63.2142C118.035 57.2966 119.136 52.0849 121.33 47.5791C123.525 43.0734 126.686 39.5739 130.798 37.0957C134.91 34.6175 139.771 33.3709 145.381 33.3709C150.991 33.3709 155.889 34.61 160.009 37.0957C164.121 39.5739 167.274 43.0734 169.476 47.5791C171.671 52.0849 172.772 57.3041 172.772 63.2142C172.772 67.0366 172.315 70.5736 171.386 73.8403C170.465 77.107 169.109 79.9907 167.341 82.5139L171.865 87.0497L165.948 93.0575L161.342 88.4841H161.334ZM130.116 74.3209C131.427 77.4224 133.382 79.818 135.996 81.5001C138.602 83.1823 141.808 84.0309 145.62 84.0309C149.036 84.0309 152.024 83.2574 154.593 81.7254L149.635 76.7916L155.627 70.7839L160.196 75.3573C161.836 72.0155 162.66 67.9678 162.66 63.2217C162.66 58.9787 162.001 55.299 160.69 52.175C159.387 49.0585 157.417 46.6554 154.803 44.9508C152.182 43.2536 148.968 42.405 145.156 42.405C141.344 42.405 138.295 43.2761 135.749 45.0108C133.21 46.7456 131.315 49.1862 130.056 52.3102C128.798 55.4417 128.169 59.1139 128.169 63.3343C128.169 67.5547 128.82 71.2119 130.131 74.3209H130.116Z" fill="#1E1E1E"/>
<path d="M184.935 91.3224C182.778 90.1659 181.138 88.6114 180.015 86.6514C178.891 84.6838 178.329 82.4985 178.329 80.088C178.329 76.9339 179.116 74.2905 180.696 72.1653C182.269 70.0476 184.733 68.403 188.096 67.2315C189.976 66.6232 192.141 66.0975 194.59 65.6619C197.039 65.2264 200.537 64.6632 205.091 63.9723L206.754 63.732C206.567 61.2388 205.78 59.4064 204.394 58.2349C203.009 57.0709 200.867 56.4852 197.983 56.4852C195.863 56.4852 193.938 56.9808 192.208 57.9571C190.471 58.9408 189.28 60.4503 188.613 62.4929L179.88 59.7444C180.966 55.982 183.026 53.0232 186.074 50.8905C189.115 48.7578 193.085 47.6914 197.983 47.6914C201.945 47.6914 205.361 48.3447 208.199 49.6439C211.046 50.9431 213.143 52.9632 214.491 55.6892C215.18 57.0709 215.622 58.4978 215.824 59.9621C216.019 61.434 216.116 63.2739 216.116 65.4742V91.8555H207.743V86.0881C205.915 88.5062 203.795 90.2635 201.391 91.3824C198.987 92.5014 196.088 93.0496 192.703 93.0496C189.684 93.0496 187.1 92.4713 184.943 91.3148L184.935 91.3224ZM189.504 83.9028C190.703 84.9091 192.403 85.4123 194.605 85.4123C196.642 85.4123 198.432 85.0518 199.983 84.3159C201.533 83.5874 202.784 82.6788 203.735 81.5899C204.687 80.501 205.338 79.4046 205.683 78.2856C206.259 76.8813 206.582 74.651 206.634 71.6021C202.477 72.2629 199.496 72.7661 197.683 73.0965C195.871 73.4269 194.275 73.8324 192.897 74.313C191.175 74.9514 189.879 75.7173 189.01 76.6185C188.134 77.5197 187.699 78.6311 187.699 79.9603C187.699 81.5824 188.298 82.8965 189.504 83.9028Z" fill="#1E1E1E"/>
<path d="M222.46 90.5489L245.163 57.2812H224.76V48.8854H260.045V50.2372L237.418 83.4673H259.086V91.863H222.453V90.5489H222.46Z" fill="#1E1E1E"/>
<path d="M282.822 34.5571H296.836L314.857 91.8631H305.015L301.09 79.4496H278.546L274.658 91.8631H264.816L282.83 34.5571H282.822ZM298.229 70.4906L289.736 43.8315L281.362 70.4906H298.229Z" fill="#1E1E1E"/>
<path d="M325.65 89.475C322.34 87.0869 320.332 83.7301 319.621 79.4121L329.388 77.9026C329.86 80.0504 330.968 81.725 332.698 82.9341C334.428 84.1431 336.608 84.7439 339.229 84.7439C341.499 84.7439 343.274 84.2858 344.547 83.3697C345.813 82.4535 346.45 81.1994 346.45 79.6073C346.45 78.571 346.203 77.775 345.716 77.2193C345.222 76.6636 344.248 76.1078 342.802 75.5672C341.349 75.0189 338.922 74.298 335.537 73.3969C331.912 72.4431 329.043 71.4143 326.946 70.3104C324.841 69.2065 323.328 67.9073 322.399 66.4129C321.478 64.911 321.014 63.0786 321.014 60.9008C321.014 58.2499 321.71 55.9295 323.096 53.9394C324.482 51.9494 326.459 50.4099 329.013 49.321C331.567 48.2321 334.518 47.6914 337.881 47.6914C341.244 47.6914 344.143 48.2096 346.734 49.2459C349.326 50.2822 351.423 51.7616 353.026 53.6841C354.629 55.6066 355.603 57.8444 355.94 60.3902L346.173 62.1399C345.903 60.3076 345.072 58.8657 343.656 57.7994C342.24 56.7405 340.368 56.1397 338.039 56.0046C335.792 55.8994 333.979 56.2524 332.601 57.0559C331.23 57.867 330.541 58.9859 330.541 60.4202C330.541 61.2989 330.818 62.0123 331.395 62.568C331.964 63.1237 333.05 63.6869 334.668 64.2576C336.286 64.8284 338.81 65.5493 342.248 66.4279C345.708 67.3291 348.457 68.3354 350.487 69.4543C352.509 70.5732 353.977 71.9025 354.891 73.4569C355.797 75.0114 356.262 76.9114 356.262 79.1643C356.262 82.0329 355.55 84.5036 354.142 86.5838C352.726 88.6639 350.689 90.2635 348.03 91.3824C345.371 92.5014 342.21 93.0496 338.563 93.0496C333.275 93.0496 328.976 91.8555 325.665 89.4675L325.65 89.475Z" fill="#1E1E1E"/>
<path d="M382.844 92.6215C379.78 92.6215 377.091 92.1334 374.785 91.1722C372.485 90.2034 370.762 88.6715 369.624 86.5763C368.935 85.3297 368.485 84.0455 368.276 82.7163C368.066 81.3871 367.961 79.8101 367.961 77.9777L367.999 74.3206V56.4101H360.216V48.8929H367.999V36.9526H377.526V48.8929H390.102V56.4101H377.526V76.0252C377.526 77.407 377.571 78.5184 377.683 79.367C377.788 80.2156 378.028 80.9215 378.402 81.4772C379.009 82.4835 379.863 83.2044 380.964 83.625C382.065 84.053 383.42 84.2633 385.038 84.2633C386.521 84.2633 388.214 84.1206 390.117 83.8277V91.8706C387.525 92.3737 385.098 92.629 382.851 92.629L382.844 92.6215Z" fill="#1E1E1E"/>
<path d="M399.352 48.8854H407.808V55.7718C408.976 53.7517 410.399 52.2197 412.1 51.1533C413.291 50.3348 414.639 49.7115 416.144 49.306C417.65 48.8929 419.2 48.6902 420.788 48.6902C421.604 48.6902 422.503 48.7578 423.484 48.8854V57.8369C422.481 57.5741 421.447 57.4389 420.391 57.4389C418.197 57.4389 416.279 57.9195 414.639 58.8732C412.736 59.9096 411.313 61.3815 410.377 63.2889C409.433 65.1964 408.961 67.4417 408.961 70.0175V91.8631H399.359V48.8854H399.352Z" fill="#1E1E1E"/>
<path d="M437.97 90.1734C434.742 88.2509 432.248 85.57 430.488 82.1381C428.728 78.7062 427.844 74.7786 427.844 70.378C427.844 65.9774 428.735 61.9747 430.525 58.5428C432.308 55.1109 434.817 52.4375 438.045 50.5451C441.273 48.6526 444.973 47.6989 449.16 47.6989C453.347 47.6989 457.167 48.6601 460.388 50.5826C463.616 52.5051 466.118 55.186 467.885 58.6179C469.66 62.0573 470.544 65.9774 470.544 70.378C470.544 74.7786 469.653 78.7362 467.863 82.1756C466.08 85.6075 463.563 88.2885 460.32 90.1959C457.077 92.1034 453.355 93.0571 449.145 93.0571C444.936 93.0571 441.183 92.0958 437.955 90.1734H437.97ZM440.846 80.4259C442.764 82.8515 445.535 84.0681 449.16 84.0681C452.785 84.0681 455.639 82.8365 457.557 80.3658C459.474 77.9026 460.433 74.5684 460.433 70.378C460.433 66.1876 459.474 62.7858 457.557 60.3451C455.639 57.9045 452.838 56.6879 449.16 56.6879C445.483 56.6879 442.629 57.9195 440.764 60.3677C438.899 62.8233 437.97 66.1576 437.97 70.378C437.97 74.5984 438.929 78.0003 440.846 80.4259Z" fill="#1E1E1E"/>
<path d="M489.172 90.8718C485.809 89.415 483.052 87.3123 480.895 84.5863C478.738 81.8528 477.368 78.6311 476.791 74.9139L486.708 73.4044C487.262 75.6348 488.228 77.5497 489.606 79.1568C490.984 80.7639 492.655 81.9804 494.632 82.814C496.602 83.6476 498.737 84.0681 501.043 84.0681C503.133 84.0681 505.081 83.7452 506.878 83.0918C508.676 82.4385 510.129 81.4923 511.222 80.2457C512.323 78.9991 512.87 77.5272 512.87 75.83C512.87 74.238 512.353 72.9088 511.32 71.8349C510.286 70.761 508.683 69.8899 506.519 69.2291L491.756 64.851C489.531 64.2126 487.509 63.3941 485.681 62.3878C483.854 61.3815 482.288 59.8721 480.978 57.8745C479.674 55.8694 479.015 53.3162 479.015 50.2147C479.015 46.6626 479.922 43.6212 481.734 41.098C483.547 38.5823 486.011 36.6748 489.119 35.3907C492.228 34.1065 495.741 33.4607 499.658 33.4607C503.575 33.4607 507.133 34.114 510.256 35.4132C513.379 36.7124 515.978 38.6123 518.053 41.1205C520.128 43.6287 521.588 46.6626 522.442 50.2147L512.159 52.0095C511.732 50.0194 510.908 48.2997 509.679 46.8579C508.451 45.416 506.946 44.3121 505.155 43.5536C503.373 42.7952 501.47 42.4197 499.463 42.4197C497.583 42.4197 495.853 42.7351 494.265 43.3584C492.677 43.9817 491.411 44.8453 490.475 45.9417C489.539 47.0456 489.067 48.3072 489.067 49.7416C489.067 51.649 489.808 53.1059 491.306 54.0972C492.804 55.0959 494.804 55.922 497.321 56.5828L507.56 59.4515C510.256 60.195 512.668 61.0661 514.788 62.0574C516.9 63.0486 518.78 64.6257 520.42 66.7734C522.06 68.9212 522.884 71.7373 522.884 75.2067C522.884 79.0216 521.858 82.2808 519.806 84.9768C517.754 87.6727 515.02 89.6928 511.612 91.0445C508.196 92.3963 504.481 93.0721 500.459 93.0721C496.437 93.0721 492.55 92.3437 489.187 90.8868L489.172 90.8718Z" fill="#1E1E1E"/>
<path d="M551.129 56.688C548.245 56.688 545.849 57.6792 543.946 59.6543C542.044 61.6293 541.085 65.0086 541.085 69.7847V91.8706H531.4V34.5571H539.932V53.6616C541.549 51.7541 543.527 50.2747 545.886 49.2234C548.238 48.1795 550.927 47.6464 553.945 47.6464C558.731 47.6464 562.372 48.8629 564.858 51.2885C567.345 53.7141 568.963 56.4176 569.697 59.3839C570.438 62.3577 570.813 65.1813 570.813 67.8623V91.8556H561.128V71.1665C561.128 61.5091 557.788 56.6804 551.129 56.6804V56.688Z" fill="#1E1E1E"/>
<path d="M581.92 33.5658H591.485V42.3596H581.92V33.5658ZM581.92 48.8854H591.485V91.8631H581.92V48.8854Z" fill="#1E1E1E"/>
<path d="M607.244 44.0868C607.319 42.9603 607.566 41.7663 607.978 40.5047C608.383 39.2431 609.042 38.1241 609.941 37.1404C611.341 35.5483 612.907 34.5195 614.644 34.0539C616.382 33.5883 618.314 33.3555 620.464 33.3555H627.048V41.158H622.089C620.314 41.158 618.974 41.6086 618.06 42.5098C617.146 43.4109 616.689 44.62 616.689 46.1294V48.8704H627.048V56.3876H616.689V91.848H607.124V56.3876H600.219V48.8704H607.124V48.1946C607.124 46.58 607.162 45.2057 607.244 44.0718V44.0868Z" fill="#1E1E1E"/>
<path d="M651.255 92.6215C648.185 92.6215 645.503 92.1334 643.196 91.1722C640.897 90.2034 639.174 88.6715 638.036 86.5763C637.346 85.3297 636.897 84.0455 636.687 82.7163C636.478 81.3871 636.365 79.8101 636.365 77.9777L636.403 74.3206V56.4101H628.628V48.8929H636.403V36.9526H645.93V48.8929H658.513V56.4101H645.93V76.0252C645.93 77.407 645.982 78.5184 646.087 79.367C646.192 80.2156 646.432 80.9215 646.806 81.4772C647.413 82.4835 648.267 83.2044 649.368 83.625C650.469 84.053 651.817 84.2633 653.435 84.2633C654.918 84.2633 656.611 84.1206 658.521 83.8277V91.8706C655.922 92.3737 653.502 92.629 651.255 92.629V92.6215Z" fill="#1E1E1E"/>
<defs>
<linearGradient id="paint0_linear_101_4" x1="25.7131" y1="132.843" x2="47.3274" y2="113.382" gradientUnits="userSpaceOnUse">
<stop stop-color="#0082CB"/>
<stop offset="0.55" stop-color="#25A0D7"/>
<stop offset="1" stop-color="#40B6E0"/>
</linearGradient>
<linearGradient id="paint1_linear_101_4" x1="-13.6244" y1="130.087" x2="88.7489" y2="75.1974" gradientUnits="userSpaceOnUse">
<stop stop-color="#0082CB"/>
<stop offset="0.55" stop-color="#25A0D7"/>
<stop offset="1" stop-color="#40B6E0"/>
</linearGradient>
<linearGradient id="paint2_linear_101_4" x1="96.7183" y1="8.28838" x2="21.2305" y2="96.6018" gradientUnits="userSpaceOnUse">
<stop stop-color="#0082CB"/>
<stop offset="0.55" stop-color="#25A0D7"/>
<stop offset="1" stop-color="#40B6E0"/>
</linearGradient>
</defs>
</svg>
