<svg width="89" height="138" viewBox="0 0 89 138" fill="none" xmlns="http://www.w3.org/2000/svg">
<path d="M42.2884 107.596C42.1611 107.385 41.8915 107.303 41.6743 107.408C35.8246 110.209 31.6152 114.452 29.9524 119.904C28.2971 125.341 29.4056 131.206 32.6713 136.793C32.7986 137.003 33.0682 137.086 33.2854 136.981C39.1276 134.187 43.3445 129.937 45.0073 124.485C46.6701 119.033 45.5541 113.183 42.2884 107.596ZM35.3602 130.402C35.1055 130.598 34.731 130.478 34.6336 130.177C33.7348 127.489 33.3529 124.387 34.3191 121.233C35.2853 118.072 37.3375 115.706 39.5995 113.979C39.8542 113.784 40.2287 113.904 40.326 114.204C41.2248 116.893 41.6068 119.994 40.6481 123.141C39.6819 126.302 37.6297 128.668 35.3677 130.395L35.3602 130.402Z" fill="url(#paint0_linear_101_5)"/>
<path d="M74.5629 76.5209C73.2446 74.651 71.9938 72.7435 70.8178 70.806C66.586 63.8446 63.2754 56.5077 61.0059 48.953C60.7438 48.0894 59.5304 47.7139 58.8264 48.2846C52.722 53.2785 45.8761 57.5215 38.476 60.9158C36.4163 61.8621 34.3191 62.7482 32.1769 63.5517C25.6906 66.0224 18.8447 67.8698 11.7517 69.0563C11.3098 69.1314 10.9578 69.4092 10.8454 69.7922L0.516713 103.668C0.336953 104.261 0.748901 104.915 1.44547 105.133C1.73758 105.223 2.04467 105.223 2.31431 105.133C14.508 101.16 28.6566 100.867 42.6704 105.163C56.6842 109.458 68.2488 117.636 76.1432 127.767C76.323 127.992 76.5702 128.165 76.8623 128.255C77.5588 128.465 78.2704 128.157 78.4502 127.564L88.7789 93.6879C88.8987 93.3049 88.7639 92.8843 88.4343 92.5689C83.2063 87.6051 78.555 82.2207 74.5479 76.5284L74.5629 76.5209ZM75.3867 116.006C75.1396 116.825 73.9562 117.028 73.2371 116.382C66.234 110.014 57.8227 104.907 48.61 101.49C47.1794 100.95 45.7263 100.462 44.2583 100.011C42.7528 99.5529 41.2398 99.1399 39.7269 98.7719C30.2146 96.4589 20.4251 95.9858 11.1001 97.3376C10.1414 97.4727 9.28001 96.6391 9.52718 95.8281L16.0135 74.5533C16.1259 74.1854 16.4554 73.9075 16.8824 73.8249C22.2377 72.766 27.4358 71.3542 32.4391 69.597C34.4988 68.8761 36.5286 68.0951 38.5135 67.269C44.7077 64.6782 50.5499 61.5467 55.9727 57.9045C56.6692 57.4389 57.7403 57.7618 58.0549 58.5428C60.5191 64.5881 63.605 70.4531 67.2826 76.0628C68.466 77.8651 69.7093 79.6449 71.0126 81.3946C74.1958 85.6676 77.7236 89.7603 81.581 93.6503C81.8881 93.9582 82.0079 94.3712 81.8956 94.7392L75.4092 116.014L75.3867 116.006Z" fill="url(#paint1_linear_101_5)"/>
<path d="M75.6714 2.18305L75.6564 2.15301C75.6114 2.05538 75.559 1.94274 75.5066 1.83009L75.4616 1.755C75.2669 1.46212 74.8999 1.19178 74.473 1.06411C74.2932 1.01154 74.106 0.981506 73.9187 0.981506C73.6491 0.981506 73.3794 1.04158 73.1323 1.16174L72.9225 1.28189C54.1826 12.246 41.2923 27.8059 35.6673 46.2796C33.5626 53.1734 32.5065 60.3827 32.5364 67.6896C32.5439 69.6496 32.6188 71.4744 32.7686 73.2842C33.4727 82.2657 35.7646 91.3674 39.5696 100.326C39.8018 100.882 40.0414 101.43 40.2886 101.971C40.7829 103.09 41.7267 103.924 42.8801 104.284C44.0486 104.644 45.2844 104.472 46.318 103.833L46.4529 103.743C46.9247 103.458 47.3816 103.158 47.8385 102.865C56.0251 97.5854 63.0133 91.3299 68.6233 84.2633C69.7767 82.8139 70.8927 81.297 71.9413 79.7575C76.0758 73.6973 79.2366 67.1113 81.3488 60.1724C86.9663 41.7738 84.9964 21.7231 75.6564 2.19056L75.6714 2.18305ZM75.7463 58.4452C74.8924 61.2613 73.8438 64.0173 72.6229 66.6908C71.4021 69.3642 70.0164 71.9625 68.466 74.4557C67.4623 76.0778 66.3538 77.7149 65.1704 79.307C59.9498 86.2984 53.3287 92.5164 45.4942 97.7806L44.7227 98.3063L44.3632 97.4427C40.8129 88.694 38.8056 79.8326 38.4086 71.1365C38.3187 69.1765 38.3112 67.2014 38.3861 65.2564C38.6034 59.3614 39.5845 53.5564 41.2698 47.9993C46.0185 32.4243 56.3996 18.877 71.2897 8.83658L71.462 8.72394C71.6642 8.62631 71.8964 8.60378 72.1286 8.67137L72.563 8.81405L72.8177 9.41482C79.4538 25.9961 80.465 42.9603 75.7388 58.4527L75.7463 58.4452Z" fill="url(#paint2_linear_101_5)"/>
<defs>
<linearGradient id="paint0_linear_101_5" x1="25.7131" y1="132.843" x2="47.3274" y2="113.382" gradientUnits="userSpaceOnUse">
<stop stop-color="#0082CB"/>
<stop offset="0.55" stop-color="#25A0D7"/>
<stop offset="1" stop-color="#40B6E0"/>
</linearGradient>
<linearGradient id="paint1_linear_101_5" x1="-13.6244" y1="130.087" x2="88.7489" y2="75.1974" gradientUnits="userSpaceOnUse">
<stop stop-color="#0082CB"/>
<stop offset="0.55" stop-color="#25A0D7"/>
<stop offset="1" stop-color="#40B6E0"/>
</linearGradient>
<linearGradient id="paint2_linear_101_5" x1="96.7183" y1="8.28838" x2="21.2305" y2="96.6018" gradientUnits="userSpaceOnUse">
<stop stop-color="#0082CB"/>
<stop offset="0.55" stop-color="#25A0D7"/>
<stop offset="1" stop-color="#40B6E0"/>
</linearGradient>
</defs>
</svg>
