<svg width="316" height="65" viewBox="0 0 316 65" fill="none" xmlns="http://www.w3.org/2000/svg">
<g clip-path="url(#clip0_101_128)">
<path d="M36.8267 48.7906C36.7729 48.7019 36.6592 48.667 36.5675 48.7114C34.0996 49.8937 32.3237 51.6845 31.6221 53.9857C30.9238 56.2805 31.3915 58.756 32.7692 61.1142C32.8229 61.203 32.9367 61.2378 33.0283 61.1935C35.4931 60.0143 37.2722 58.2203 37.9737 55.9192C38.6721 53.6243 38.2044 51.1488 36.8267 48.7906ZM33.9037 58.4168C33.7962 58.4993 33.6382 58.4485 33.5971 58.3218C33.2179 57.187 33.0568 55.878 33.4644 54.5467C33.8721 53.2123 34.7379 52.2138 35.6922 51.4848C35.7997 51.4024 35.9577 51.4531 35.9987 51.5799C36.3779 52.7146 36.5391 54.0237 36.1346 55.3518C35.727 56.6862 34.8611 57.6847 33.9068 58.4137L33.9037 58.4168Z" fill="white"/>
<path d="M50.4431 35.6744C49.8869 34.8852 49.3592 34.0801 48.8631 33.2623C47.0777 30.3241 45.6809 27.2273 44.7235 24.0387C44.6129 23.6742 44.1009 23.5157 43.8039 23.7566C41.2285 25.8644 38.3403 27.6552 35.2182 29.0879C34.3492 29.4873 33.4644 29.8613 32.5606 30.2005C29.8241 31.2433 26.9358 32.023 23.9433 32.5238C23.7569 32.5555 23.6083 32.6728 23.5609 32.8344L19.2033 47.1327C19.1275 47.3831 19.3013 47.6589 19.5951 47.7508C19.7184 47.7888 19.8479 47.7888 19.9617 47.7508C25.1062 46.0741 31.0754 45.9505 36.9878 47.7635C42.9002 49.5765 47.7792 53.0283 51.1098 57.3041C51.1857 57.3992 51.2899 57.4721 51.4132 57.5102C51.7071 57.5989 52.0073 57.469 52.0831 57.2186L56.4407 42.9203C56.4913 42.7586 56.4344 42.5811 56.2954 42.448C54.0897 40.3528 52.1273 38.0802 50.4367 35.6776L50.4431 35.6744ZM50.7907 52.3405C50.6864 52.686 50.1871 52.7715 49.8837 52.4989C46.9291 49.8111 43.3805 47.6557 39.4937 46.2135C38.8901 45.9853 38.2771 45.7793 37.6577 45.5891C37.0225 45.3958 36.3842 45.2214 35.7459 45.0661C31.7327 44.0899 27.6026 43.8902 23.6684 44.4607C23.2639 44.5178 22.9005 44.1659 23.0048 43.8236L25.7413 34.844C25.7887 34.6887 25.9278 34.5714 26.1079 34.5365C28.3673 34.0896 30.5603 33.4937 32.6712 32.752C33.5402 32.4477 34.3966 32.1181 35.234 31.7694C37.8473 30.6759 40.3121 29.3542 42.5999 27.8169C42.8938 27.6204 43.3457 27.7567 43.4784 28.0863C44.5181 30.6379 45.82 33.1134 47.3715 35.4811C47.8708 36.2418 48.3954 36.993 48.9452 37.7316C50.2882 39.5351 51.7766 41.2625 53.404 42.9044C53.5335 43.0344 53.5841 43.2087 53.5367 43.364L50.8001 52.3436L50.7907 52.3405Z" fill="white"/>
<path d="M50.9107 4.29816L50.9044 4.28548C50.8855 4.24428 50.8633 4.19673 50.8412 4.14919L50.8223 4.11749C50.7401 3.99387 50.5853 3.87977 50.4051 3.82588C50.3293 3.80369 50.2503 3.79102 50.1713 3.79102C50.0575 3.79102 49.9438 3.81637 49.8395 3.86709L49.751 3.9178C41.8447 8.54549 36.4063 15.113 34.0332 22.9103C33.1452 25.8201 32.6997 28.8629 32.7123 31.947C32.7155 32.7743 32.7471 33.5445 32.8103 34.3084C33.1073 38.0993 34.0743 41.9409 35.6795 45.7223C35.7775 45.9569 35.8786 46.1882 35.9829 46.4165C36.1915 46.8887 36.5896 47.2406 37.0763 47.3927C37.5692 47.5449 38.0906 47.472 38.5267 47.2025L38.5836 47.1645C38.7827 47.044 38.9754 46.9173 39.1682 46.7936C42.6221 44.5654 45.5703 41.9251 47.9372 38.9424C48.4238 38.3307 48.8947 37.6904 49.3371 37.0406C51.0814 34.4827 52.4149 31.7029 53.306 28.7742C55.676 21.0086 54.8449 12.5456 50.9044 4.30133L50.9107 4.29816ZM50.9423 28.0452C50.5821 29.2338 50.1397 30.3971 49.6246 31.5254C49.1095 32.6538 48.5249 33.7505 47.8708 34.8029C47.4474 35.4875 46.9797 36.1785 46.4804 36.8505C44.2779 39.8014 41.4845 42.4259 38.1791 44.6478L37.8536 44.8697L37.7019 44.5052C36.2041 40.8125 35.3572 37.0723 35.1897 33.4019C35.1518 32.5746 35.1487 31.741 35.1803 30.92C35.2719 28.4319 35.6859 25.9817 36.3969 23.6362C38.4003 17.0623 42.7801 11.3443 49.0621 7.10647L49.1348 7.05892C49.2201 7.01772 49.3181 7.00821 49.4161 7.03674L49.5993 7.09696L49.7068 7.35053C52.5065 14.3491 52.9331 21.5094 50.9392 28.0483L50.9423 28.0452Z" fill="white"/>
<path d="M87.0517 41.3863C85.1778 42.6732 82.931 43.3166 80.3209 43.3166C77.954 43.3166 75.9 42.7936 74.1683 41.7477C72.4335 40.7017 71.1 39.2246 70.1741 37.3228C69.2482 35.421 68.7837 33.2181 68.7837 30.7205C68.7837 28.2228 69.2482 26.023 70.1741 24.1212C71.1 22.2195 72.4335 20.7424 74.1683 19.6964C75.9032 18.6504 77.954 18.1243 80.3209 18.1243C82.6877 18.1243 84.7543 18.6473 86.4923 19.6964C88.2272 20.7424 89.5575 22.2195 90.4866 24.1212C91.4125 26.023 91.877 28.2259 91.877 30.7205C91.877 32.3338 91.6842 33.8267 91.2924 35.2055C90.9037 36.5843 90.3317 37.8015 89.586 38.8665L91.4946 40.7809L88.9982 43.3166L87.0548 41.3863H87.0517ZM73.8808 35.4084C74.4338 36.7174 75.2585 37.7285 76.3614 38.4385C77.4611 39.1486 78.8135 39.5067 80.422 39.5067C81.8629 39.5067 83.1238 39.1802 84.2077 38.5336L82.1157 36.4512L84.6437 33.9155L86.5713 35.8458C87.2634 34.4353 87.611 32.7268 87.611 30.7236C87.611 28.9328 87.3329 27.3796 86.7799 26.0611C86.2301 24.7457 85.399 23.7314 84.2961 23.0119C83.1901 22.2955 81.8345 21.9374 80.2261 21.9374C78.6176 21.9374 77.3315 22.305 76.2571 23.0372C75.1859 23.7694 74.3864 24.7995 73.8555 26.1181C73.3246 27.4399 73.0592 28.9898 73.0592 30.7712C73.0592 32.5525 73.3341 34.0961 73.8871 35.4084H73.8808Z" fill="white"/>
<path d="M97.0088 42.5875C96.0987 42.0994 95.4067 41.4433 94.9327 40.616C94.4587 39.7856 94.2217 38.8632 94.2217 37.8457C94.2217 36.5145 94.5535 35.3988 95.2202 34.5018C95.8838 33.6079 96.9235 32.9138 98.3423 32.4193C99.1355 32.1626 100.049 31.9407 101.082 31.7568C102.115 31.573 103.591 31.3353 105.512 31.0437L106.214 30.9422C106.135 29.8899 105.803 29.1165 105.218 28.6221C104.634 28.1308 103.73 27.8835 102.514 27.8835C101.619 27.8835 100.807 28.0927 100.077 28.5048C99.344 28.92 98.8416 29.5571 98.5604 30.4193L94.8758 29.2592C95.334 27.6712 96.203 26.4223 97.4891 25.5221C98.7721 24.622 100.447 24.1719 102.514 24.1719C104.185 24.1719 105.626 24.4476 106.824 24.996C108.025 25.5443 108.909 26.397 109.478 27.5476C109.769 28.1308 109.955 28.733 110.041 29.3511C110.123 29.9723 110.164 30.7489 110.164 31.6776V42.8126H106.631V40.3783C105.86 41.3989 104.966 42.1406 103.951 42.6129C102.937 43.0852 101.714 43.3166 100.286 43.3166C99.0122 43.3166 97.922 43.0725 97.012 42.5844L97.0088 42.5875ZM98.9364 39.4559C99.442 39.8807 100.159 40.093 101.088 40.093C101.948 40.093 102.703 39.9409 103.357 39.6303C104.011 39.3228 104.539 38.9393 104.94 38.4797C105.342 38.0201 105.617 37.5573 105.762 37.085C106.005 36.4923 106.141 35.5509 106.163 34.264C104.41 34.543 103.152 34.7553 102.387 34.8948C101.622 35.0343 100.949 35.2054 100.368 35.4083C99.6411 35.6777 99.0944 36.001 98.7278 36.3814C98.3581 36.7617 98.1748 37.2308 98.1748 37.7919C98.1748 38.4765 98.4276 39.0312 98.9364 39.4559Z" fill="white"/>
<path d="M112.84 42.2581L122.418 28.2165H113.811V24.6729H128.697V25.2434L119.151 39.2691H128.293V42.8128H112.837V42.2581H112.84Z" fill="white"/>
<path d="M138.307 18.6282H144.219L151.822 42.8158H147.67L146.014 37.5763H136.502L134.862 42.8158H130.71L138.31 18.6282H138.307ZM144.807 33.7949L141.224 22.5427L137.691 33.7949H144.807Z" fill="white"/>
<path d="M156.376 41.8046C154.979 40.7967 154.132 39.3798 153.832 37.5573L157.953 36.9202C158.152 37.8267 158.619 38.5336 159.349 39.0439C160.079 39.5542 160.999 39.8077 162.105 39.8077C163.062 39.8077 163.811 39.6144 164.348 39.2277C164.882 38.841 165.151 38.3117 165.151 37.6397C165.151 37.2023 165.047 36.8663 164.841 36.6318C164.633 36.3972 164.222 36.1627 163.612 35.9344C162.999 35.7031 161.975 35.3988 160.547 35.0184C159.017 34.6159 157.807 34.1816 156.922 33.7157C156.034 33.2497 155.396 32.7014 155.004 32.0706C154.616 31.4367 154.42 30.6633 154.42 29.7441C154.42 28.6252 154.714 27.6458 155.298 26.8058C155.883 25.9659 156.717 25.3161 157.795 24.8565C158.872 24.3969 160.117 24.1687 161.536 24.1687C162.955 24.1687 164.178 24.3874 165.271 24.8248C166.364 25.2622 167.249 25.8867 167.926 26.6981C168.602 27.5095 169.013 28.4541 169.155 29.5286L165.034 30.2671C164.92 29.4937 164.57 28.8851 163.972 28.435C163.375 27.9881 162.585 27.7346 161.602 27.6775C160.654 27.6331 159.89 27.7821 159.308 28.1213C158.73 28.4636 158.439 28.9359 158.439 29.5413C158.439 29.9121 158.556 30.2132 158.799 30.4478C159.04 30.6823 159.498 30.9201 160.18 31.1609C160.863 31.4018 161.928 31.7061 163.378 32.077C164.838 32.4573 165.998 32.8821 166.854 33.3543C167.707 33.8266 168.327 34.3876 168.712 35.0438C169.095 35.6999 169.291 36.5018 169.291 37.4527C169.291 38.6635 168.99 39.7063 168.396 40.5843C167.799 41.4623 166.94 42.1374 165.818 42.6097C164.696 43.082 163.362 43.3134 161.824 43.3134C159.593 43.3134 157.779 42.8094 156.382 41.8015L156.376 41.8046Z" fill="white"/>
<path d="M180.505 43.1328C179.213 43.1328 178.079 42.9268 177.105 42.5211C176.135 42.1122 175.408 41.4656 174.928 40.5813C174.637 40.0551 174.448 39.5131 174.359 38.9521C174.271 38.391 174.227 37.7254 174.227 36.952L174.242 35.4084V27.8488H170.959V24.676H174.242V19.6362H178.262V24.676H183.567V27.8488H178.262V36.1279C178.262 36.7111 178.281 37.1802 178.328 37.5384C178.372 37.8966 178.474 38.1945 178.632 38.4291C178.888 38.8538 179.248 39.1581 179.712 39.3356C180.177 39.5163 180.749 39.605 181.431 39.605C182.057 39.605 182.771 39.5448 183.574 39.4212V42.8159C182.48 43.0282 181.457 43.136 180.509 43.136L180.505 43.1328Z" fill="white"/>
<path d="M187.47 24.6727H191.038V27.5793C191.531 26.7267 192.131 26.0801 192.848 25.63C193.351 25.2845 193.92 25.0214 194.555 24.8502C195.19 24.6759 195.844 24.5903 196.514 24.5903C196.859 24.5903 197.238 24.6189 197.652 24.6727V28.451C197.228 28.34 196.792 28.283 196.347 28.283C195.421 28.283 194.612 28.4858 193.92 28.8884C193.117 29.3258 192.517 29.947 192.122 30.7521C191.724 31.5572 191.524 32.5049 191.524 33.5921V42.8126H187.473V24.6727H187.47Z" fill="white"/>
<path d="M203.763 42.0994C202.401 41.288 201.349 40.1564 200.606 38.7079C199.864 37.2594 199.491 35.6016 199.491 33.7442C199.491 31.8868 199.867 30.1974 200.622 28.7488C201.374 27.3003 202.433 26.1719 203.795 25.3732C205.157 24.5744 206.718 24.1719 208.484 24.1719C210.251 24.1719 211.862 24.5776 213.221 25.389C214.583 26.2004 215.638 27.332 216.384 28.7805C217.133 30.2322 217.506 31.8868 217.506 33.7442C217.506 35.6016 217.13 37.272 216.375 38.7237C215.623 40.1723 214.561 41.3038 213.193 42.1089C211.824 42.914 210.254 43.3166 208.478 43.3166C206.702 43.3166 205.119 42.9108 203.757 42.0994H203.763ZM204.977 37.9852C205.785 39.009 206.955 39.5225 208.484 39.5225C210.014 39.5225 211.218 39.0027 212.026 37.9598C212.835 36.9202 213.24 35.5129 213.24 33.7442C213.24 31.9756 212.835 30.5397 212.026 29.5096C211.218 28.4794 210.036 27.9659 208.484 27.9659C206.933 27.9659 205.729 28.4858 204.942 29.5191C204.155 30.5555 203.763 31.9629 203.763 33.7442C203.763 35.5256 204.168 36.9614 204.977 37.9852Z" fill="white"/>
<path d="M225.365 42.3943C223.946 41.7794 222.783 40.8919 221.873 39.7413C220.963 38.5876 220.385 37.2278 220.141 35.6588L224.325 35.0217C224.559 35.9631 224.967 36.7714 225.548 37.4497C226.13 38.128 226.834 38.6415 227.668 38.9933C228.5 39.3451 229.4 39.5226 230.373 39.5226C231.255 39.5226 232.077 39.3863 232.835 39.1106C233.593 38.8348 234.207 38.4354 234.668 37.9093C235.132 37.3831 235.363 36.7619 235.363 36.0455C235.363 35.3736 235.145 34.8125 234.709 34.3593C234.273 33.906 233.597 33.5383 232.683 33.2594L226.455 31.4115C225.517 31.1421 224.663 30.7966 223.892 30.3718C223.121 29.9471 222.461 29.31 221.908 28.4669C221.358 27.6206 221.08 26.5429 221.08 25.2338C221.08 23.7346 221.462 22.4509 222.227 21.3859C222.992 20.3241 224.031 19.519 225.343 18.977C226.654 18.4349 228.136 18.1624 229.789 18.1624C231.442 18.1624 232.943 18.4381 234.26 18.9865C235.578 19.5348 236.674 20.3367 237.55 21.3954C238.425 22.4541 239.041 23.7346 239.402 25.2338L235.063 25.9914C234.883 25.1514 234.535 24.4256 234.017 23.817C233.499 23.2084 232.864 22.7425 232.108 22.4224C231.356 22.1022 230.554 21.9437 229.707 21.9437C228.914 21.9437 228.184 22.0769 227.514 22.34C226.844 22.603 226.31 22.9675 225.915 23.4303C225.52 23.8962 225.321 24.4288 225.321 25.0342C225.321 25.8392 225.633 26.4542 226.265 26.8725C226.897 27.2941 227.741 27.6428 228.803 27.9217L233.123 29.1325C234.26 29.4463 235.278 29.814 236.172 30.2324C237.063 30.6508 237.856 31.3164 238.548 32.2229C239.24 33.1294 239.588 34.3181 239.588 35.7824C239.588 37.3926 239.155 38.7682 238.289 39.9061C237.423 41.0441 236.27 41.8967 234.832 42.4672C233.394 43.0378 231.824 43.323 230.127 43.323C228.43 43.323 226.79 43.0156 225.371 42.4007L225.365 42.3943Z" fill="white"/>
<path d="M251.504 27.966C250.288 27.966 249.277 28.3844 248.474 29.218C247.671 30.0516 247.267 31.4779 247.267 33.4938V42.8158H243.181V18.6282H246.78V26.6918C247.463 25.8867 248.297 25.2623 249.292 24.8185C250.285 24.3779 251.419 24.1529 252.693 24.1529C254.712 24.1529 256.248 24.6664 257.297 25.6902C258.346 26.714 259.028 27.855 259.338 29.107C259.651 30.3622 259.809 31.554 259.809 32.6856V42.8126H255.723V34.0802C255.723 30.004 254.314 27.966 251.504 27.966Z" fill="white"/>
<path d="M264.495 18.2068H268.53V21.9184H264.495V18.2068ZM264.495 24.6729H268.53V42.8128H264.495V24.6729Z" fill="white"/>
<path d="M275.179 22.6505C275.211 22.1751 275.315 21.6711 275.489 21.1386C275.659 20.6061 275.938 20.1338 276.317 19.7186C276.908 19.0466 277.568 18.6124 278.301 18.4159C279.034 18.2194 279.85 18.1211 280.756 18.1211H283.534V21.4144H281.442C280.693 21.4144 280.128 21.6045 279.742 21.9849C279.357 22.3653 279.164 22.8756 279.164 23.5127V24.6696H283.534V27.8424H279.164V42.8095H275.129V27.8424H272.215V24.6696H275.129V24.3843C275.129 23.7028 275.144 23.1228 275.179 22.6442V22.6505Z" fill="white"/>
<path d="M293.747 43.1328C292.452 43.1328 291.32 42.9268 290.347 42.5211C289.377 42.1122 288.65 41.4656 288.17 40.5813C287.879 40.0551 287.69 39.5131 287.601 38.9521C287.513 38.391 287.465 37.7254 287.465 36.952L287.481 35.4084V27.8488H284.201V24.676H287.481V19.6362H291.501V24.676H296.809V27.8488H291.501V36.1279C291.501 36.7111 291.523 37.1802 291.567 37.5384C291.611 37.8966 291.712 38.1945 291.87 38.4291C292.126 38.8538 292.486 39.1581 292.951 39.3356C293.415 39.5163 293.984 39.605 294.667 39.605C295.293 39.605 296.007 39.5448 296.812 39.4212V42.8159C295.716 43.0282 294.695 43.136 293.747 43.136V43.1328Z" fill="white"/>
</g>
<defs>
<clipPath id="clip0_101_128">
<rect width="316" height="65" fill="white"/>
</clipPath>
</defs>
</svg>
